<svg width="24" height="24" viewBox="0 0 24 24" fill="none" xmlns="http://www.w3.org/2000/svg">
<path fill-rule="evenodd" clip-rule="evenodd" d="M4.84049 4.84054C5.27983 4.4012 5.99214 4.4012 6.43148 4.84054L19.1594 17.5685C19.5987 18.0078 19.5987 18.7201 19.1594 19.1595C18.7201 19.5988 18.0078 19.5988 17.5684 19.1595L4.84049 6.43153C4.40115 5.99219 4.40115 5.27988 4.84049 4.84054Z" fill="#292D32"/>
<path fill-rule="evenodd" clip-rule="evenodd" d="M19.1595 4.84054C19.5988 5.27988 19.5988 5.99219 19.1595 6.43153L6.43159 19.1595C5.99225 19.5988 5.27994 19.5988 4.8406 19.1595C4.40126 18.7201 4.40126 18.0078 4.8406 17.5685L17.5685 4.84054C18.0079 4.4012 18.7202 4.4012 19.1595 4.84054Z" fill="#292D32"/>
</svg>
