<svg width="24" height="24" viewBox="0 0 24 24" fill="none" xmlns="http://www.w3.org/2000/svg">
<path fill-rule="evenodd" clip-rule="evenodd" d="M8.5 7L22 12V22H8.5V7Z" fill="#1C1B1E"/>
<path fill-rule="evenodd" clip-rule="evenodd" d="M8.07155 6.38443C8.27301 6.24422 8.53032 6.21145 8.76049 6.29669L22.2605 11.2967C22.5547 11.4057 22.75 11.6863 22.75 12V22C22.75 22.4142 22.4142 22.75 22 22.75H8.5C8.08579 22.75 7.75 22.4142 7.75 22V7C7.75 6.75456 7.8701 6.52464 8.07155 6.38443ZM9.25 8.07757V21.25H21.25V12.522L9.25 8.07757Z" fill="#1C1B1E"/>
<path fill-rule="evenodd" clip-rule="evenodd" d="M9.09447 6.54275C9.34702 6.87107 9.2856 7.34195 8.95728 7.59451L2.75 12.3693V21.25H8.5C8.91421 21.25 9.25 21.5858 9.25 22C9.25 22.4142 8.91421 22.75 8.5 22.75H2C1.58579 22.75 1.25 22.4142 1.25 22V12C1.25 11.7672 1.35815 11.5475 1.54272 11.4056L8.04272 6.40557C8.37103 6.15302 8.84192 6.21444 9.09447 6.54275Z" fill="#1C1B1E"/>
<path fill-rule="evenodd" clip-rule="evenodd" d="M7.75 22C7.75 21.5858 8.08579 21.25 8.5 21.25H22C22.4142 21.25 22.75 21.5858 22.75 22C22.75 22.4142 22.4142 22.75 22 22.75H8.5C8.08579 22.75 7.75 22.4142 7.75 22Z" fill="#1C1B1E"/>
</svg>
