<svg width="24" height="24" viewBox="0 0 24 24" fill="none" xmlns="http://www.w3.org/2000/svg">
<path d="M12 22C14.7614 22 17.2614 20.8807 19.0711 19.0711C20.8807 17.2614 22 14.7614 22 12C22 9.2386 20.8807 6.7386 19.0711 4.92893C17.2614 3.11929 14.7614 2 12 2C9.2386 2 6.7386 3.11929 4.92893 4.92893C3.11929 6.7386 2 9.2386 2 12C2 14.7614 3.11929 17.2614 4.92893 19.0711C6.7386 20.8807 9.2386 22 12 22Z" fill="#1C1B1E"/>
<path fill-rule="evenodd" clip-rule="evenodd" d="M4.3986 4.3986C6.34317 2.45406 9.0317 1.25 12 1.25C14.9683 1.25 17.6568 2.45406 19.6014 4.3986L19.0711 4.92893L19.6014 4.3986C21.5459 6.34317 22.75 9.0317 22.75 12C22.75 14.9683 21.5459 17.6568 19.6014 19.6014C17.6568 21.5459 14.9683 22.75 12 22.75C9.0317 22.75 6.34317 21.5459 4.3986 19.6014L4.92893 19.0711L4.3986 19.6014C2.45406 17.6568 1.25 14.9683 1.25 12C1.25 9.0317 2.45406 6.34317 4.3986 4.3986L4.3986 4.3986ZM12 2.75C9.4455 2.75 7.13403 3.78452 5.45926 5.45926C3.78451 7.13404 2.75 9.4455 2.75 12C2.75 14.5545 3.78452 16.866 5.45926 18.5407C7.13403 20.2155 9.4455 21.25 12 21.25C14.5545 21.25 16.866 20.2155 18.5407 18.5407C20.2155 16.866 21.25 14.5545 21.25 12C21.25 9.4455 20.2155 7.13403 18.5407 5.45926C16.866 3.78452 14.5545 2.75 12 2.75Z" fill="#1C1B1E"/>
<path fill-rule="evenodd" clip-rule="evenodd" d="M17.5303 8.46967C17.8232 8.76256 17.8232 9.23744 17.5303 9.53033L11.5303 15.5303C11.2374 15.8232 10.7626 15.8232 10.4697 15.5303L7.46967 12.5303C7.17678 12.2374 7.17678 11.7626 7.46967 11.4697C7.76256 11.1768 8.23744 11.1768 8.53033 11.4697L11 13.9393L16.4697 8.46967C16.7626 8.17678 17.2374 8.17678 17.5303 8.46967Z" fill="#FFFBFF"/>
</svg>
