<svg width="24" height="24" viewBox="0 0 24 24" fill="none" xmlns="http://www.w3.org/2000/svg">
<path d="M21 2H3C2.44772 2 2 2.44772 2 3V21C2 21.5523 2.44772 22 3 22H21C21.5523 22 22 21.5523 22 21V3C22 2.44772 21.5523 2 21 2Z" fill="#1C1B1E"/>
<path fill-rule="evenodd" clip-rule="evenodd" d="M3 2.75C2.86193 2.75 2.75 2.86193 2.75 3V21C2.75 21.1381 2.86193 21.25 3 21.25H21C21.1381 21.25 21.25 21.1381 21.25 21V3C21.25 2.86193 21.1381 2.75 21 2.75H3ZM1.25 3C1.25 2.0335 2.0335 1.25 3 1.25H21C21.9665 1.25 22.75 2.0335 22.75 3V21C22.75 21.9665 21.9665 22.75 21 22.75H3C2.0335 22.75 1.25 21.9665 1.25 21V3Z" fill="#1C1B1E"/>
<path fill-rule="evenodd" clip-rule="evenodd" d="M19.7063 5.74771C19.8456 6.13779 19.6423 6.56695 19.2522 6.70627L5.25221 11.7063C4.86213 11.8456 4.43297 11.6423 4.29365 11.2522C4.15434 10.8621 4.35763 10.433 4.74771 10.2937L18.7477 5.29365C19.1378 5.15434 19.567 5.35763 19.7063 5.74771Z" fill="#FFFBFF"/>
<path fill-rule="evenodd" clip-rule="evenodd" d="M19.7063 9.24771C19.8456 9.63779 19.6423 10.067 19.2522 10.2063L18.8147 10.3625C18.4246 10.5018 17.9955 10.2985 17.8562 9.90846C17.7168 9.51838 17.9201 9.08922 18.3102 8.9499L18.7477 8.79365C19.1378 8.65434 19.567 8.85763 19.7063 9.24771ZM16.6438 10.3415C16.7831 10.7315 16.5798 11.1607 16.1897 11.3L15.3147 11.6125C14.9246 11.7518 14.4955 11.5485 14.3562 11.1585C14.2168 10.7684 14.4201 10.3392 14.8102 10.1999L15.6852 9.8874C16.0753 9.74809 16.5045 9.95138 16.6438 10.3415ZM13.1438 11.5915C13.2831 11.9815 13.0798 12.4107 12.6897 12.55L11.8147 12.8625C11.4246 13.0018 10.9955 12.7985 10.8562 12.4085C10.7168 12.0184 10.9201 11.5892 11.3102 11.4499L12.1852 11.1374C12.5753 10.9981 13.0045 11.2014 13.1438 11.5915ZM9.64377 12.8415C9.78308 13.2315 9.57979 13.6607 9.18971 13.8L8.31471 14.1125C7.92463 14.2518 7.49547 14.0485 7.35615 13.6585C7.21684 13.2684 7.42013 12.8392 7.81021 12.6999L8.68521 12.3874C9.07529 12.2481 9.50445 12.4514 9.64377 12.8415ZM6.14377 14.0915C6.28308 14.4815 6.07979 14.9107 5.68971 15.05L5.25221 15.2063C4.86213 15.3456 4.43297 15.1423 4.29365 14.7522C4.15434 14.3621 4.35763 13.933 4.74771 13.7937L5.18521 13.6374C5.57529 13.4981 6.00445 13.7014 6.14377 14.0915Z" fill="#FFFBFF"/>
<path fill-rule="evenodd" clip-rule="evenodd" d="M19.7063 12.7477C19.8456 13.1378 19.6423 13.567 19.2522 13.7063L5.25221 18.7063C4.86213 18.8456 4.43297 18.6423 4.29365 18.2522C4.15434 17.8621 4.35763 17.433 4.74771 17.2937L18.7477 12.2937C19.1378 12.1543 19.567 12.3576 19.7063 12.7477Z" fill="#FFFBFF"/>
<path fill-rule="evenodd" clip-rule="evenodd" d="M6.23662 4.79771C6.62446 4.65227 7.05677 4.84878 7.20221 5.23662L8.70221 9.23662C8.84765 9.62446 8.65114 10.0568 8.2633 10.2022C7.87546 10.3476 7.44315 10.1511 7.29771 9.7633L5.79771 5.7633C5.65227 5.37546 5.84878 4.94315 6.23662 4.79771Z" fill="#FFFBFF"/>
<path fill-rule="evenodd" clip-rule="evenodd" d="M16.7366 13.2977C17.1245 13.1523 17.5568 13.3488 17.7022 13.7366L19.2022 17.7366C19.3476 18.1245 19.1511 18.5568 18.7633 18.7022C18.3755 18.8476 17.9432 18.6511 17.7977 18.2633L16.2977 14.2633C16.1523 13.8755 16.3488 13.4432 16.7366 13.2977Z" fill="#FFFBFF"/>
</svg>
