<svg width="24" height="24" viewBox="0 0 24 24" fill="none" xmlns="http://www.w3.org/2000/svg">
<path fill-rule="evenodd" clip-rule="evenodd" d="M1.25 12C1.25 6.06294 6.06294 1.25 12 1.25C17.9371 1.25 22.75 6.06294 22.75 12C22.75 17.9371 17.9371 22.75 12 22.75C6.06294 22.75 1.25 17.9371 1.25 12ZM12 2.75C6.89136 2.75 2.75 6.89136 2.75 12C2.75 17.1086 6.89136 21.25 12 21.25C17.1086 21.25 21.25 17.1086 21.25 12C21.25 6.89136 17.1086 2.75 12 2.75Z" fill="#1C1B1E"/>
<path fill-rule="evenodd" clip-rule="evenodd" d="M8.6413 8.64121C8.93419 8.34832 9.40907 8.34832 9.70196 8.64121L15.3588 14.2981C15.6517 14.591 15.6517 15.0658 15.3588 15.3587C15.0659 15.6516 14.591 15.6516 14.2982 15.3587L8.6413 9.70187C8.34841 9.40898 8.34841 8.9341 8.6413 8.64121Z M12 22C17.5229 22 22 17.5229 22 12C22 6.47715 17.5229 2 12 2C6.47715 2 2 6.47715 2 12C2 17.5229 6.47715 22 12 22Z M15.3588 8.64121C15.6517 8.9341 15.6517 9.40898 15.3588 9.70187L9.70196 15.3587C9.40907 15.6516 8.93419 15.6516 8.6413 15.3587C8.34841 15.0658 8.34841 14.591 8.6413 14.2981L14.2982 8.64121C14.591 8.34832 15.0659 8.34832 15.3588 8.64121Z" fill="#FFFBFF"/>
</svg>
