<svg width="24" height="24" viewBox="0 0 24 24" fill="none" xmlns="http://www.w3.org/2000/svg">
<path d="M6 2H2V6H6V2Z" fill="#1C1B1E"/>
<path fill-rule="evenodd" clip-rule="evenodd" d="M1.25 2C1.25 1.58579 1.58579 1.25 2 1.25H6C6.41421 1.25 6.75 1.58579 6.75 2V6C6.75 6.41421 6.41421 6.75 6 6.75H2C1.58579 6.75 1.25 6.41421 1.25 6V2ZM2.75 2.75V5.25H5.25V2.75H2.75Z" fill="#1C1B1E"/>
<path d="M22 18H18V22H22V18Z" fill="#1C1B1E"/>
<path fill-rule="evenodd" clip-rule="evenodd" d="M17.25 18C17.25 17.5858 17.5858 17.25 18 17.25H22C22.4142 17.25 22.75 17.5858 22.75 18V22C22.75 22.4142 22.4142 22.75 22 22.75H18C17.5858 22.75 17.25 22.4142 17.25 22V18ZM18.75 18.75V21.25H21.25V18.75H18.75Z" fill="#1C1B1E"/>
<path d="M6 18H2V22H6V18Z" fill="#1C1B1E"/>
<path fill-rule="evenodd" clip-rule="evenodd" d="M1.25 18C1.25 17.5858 1.58579 17.25 2 17.25H6C6.41421 17.25 6.75 17.5858 6.75 18V22C6.75 22.4142 6.41421 22.75 6 22.75H2C1.58579 22.75 1.25 22.4142 1.25 22V18ZM2.75 18.75V21.25H5.25V18.75H2.75Z" fill="#1C1B1E"/>
<path d="M22 2H18V6H22V2Z" fill="#1C1B1E"/>
<path fill-rule="evenodd" clip-rule="evenodd" d="M17.25 2C17.25 1.58579 17.5858 1.25 18 1.25H22C22.4142 1.25 22.75 1.58579 22.75 2V6C22.75 6.41421 22.4142 6.75 22 6.75H18C17.5858 6.75 17.25 6.41421 17.25 6V2ZM18.75 2.75V5.25H21.25V2.75H18.75Z" fill="#1C1B1E"/>
<path fill-rule="evenodd" clip-rule="evenodd" d="M4 5.25C4.41421 5.25 4.75 5.58579 4.75 6V18C4.75 18.4142 4.41421 18.75 4 18.75C3.58579 18.75 3.25 18.4142 3.25 18V6C3.25 5.58579 3.58579 5.25 4 5.25Z" fill="#1C1B1E"/>
<path fill-rule="evenodd" clip-rule="evenodd" d="M20 5.25C20.4142 5.25 20.75 5.58579 20.75 6V18C20.75 18.4142 20.4142 18.75 20 18.75C19.5858 18.75 19.25 18.4142 19.25 18V6C19.25 5.58579 19.5858 5.25 20 5.25Z" fill="#1C1B1E"/>
<path fill-rule="evenodd" clip-rule="evenodd" d="M5.25 4C5.25 3.58579 5.58579 3.25 6 3.25H18C18.4142 3.25 18.75 3.58579 18.75 4C18.75 4.41421 18.4142 4.75 18 4.75H6C5.58579 4.75 5.25 4.41421 5.25 4Z" fill="#1C1B1E"/>
<path fill-rule="evenodd" clip-rule="evenodd" d="M5.25 20C5.25 19.5858 5.58579 19.25 6 19.25H18C18.4142 19.25 18.75 19.5858 18.75 20C18.75 20.4142 18.4142 20.75 18 20.75H6C5.58579 20.75 5.25 20.4142 5.25 20Z" fill="#1C1B1E"/>
</svg>
