<svg width="24" height="24" viewBox="0 0 24 24" fill="none" xmlns="http://www.w3.org/2000/svg">
<path d="M12 22C17.5229 22 22 17.5229 22 12C22 6.47715 17.5229 2 12 2C6.47715 2 2 6.47715 2 12C2 17.5229 6.47715 22 12 22Z" fill="#1C1B1E"/>
<path fill-rule="evenodd" clip-rule="evenodd" d="M1.25 12C1.25 6.06294 6.06294 1.25 12 1.25C17.9371 1.25 22.75 6.06294 22.75 12C22.75 17.9371 17.9371 22.75 12 22.75C6.06294 22.75 1.25 17.9371 1.25 12ZM12 2.75C6.89136 2.75 2.75 6.89136 2.75 12C2.75 17.1086 6.89136 21.25 12 21.25C17.1086 21.25 21.25 17.1086 21.25 12C21.25 6.89136 17.1086 2.75 12 2.75Z" fill="#1C1B1E"/>
<path fill-rule="evenodd" clip-rule="evenodd" d="M9.96967 6.96967C10.2626 6.67678 10.7374 6.67678 11.0303 6.96967L15.5303 11.4697C15.8232 11.7626 15.8232 12.2374 15.5303 12.5303L11.0303 17.0303C10.7374 17.3232 10.2626 17.3232 9.96967 17.0303C9.67678 16.7374 9.67678 16.2626 9.96967 15.9697L13.9393 12L9.96967 8.03033C9.67678 7.73744 9.67678 7.26256 9.96967 6.96967Z" fill="#FFFBFF"/>
</svg>
