<svg width="24" height="24" viewBox="0 0 24 24" fill="none" xmlns="http://www.w3.org/2000/svg">
<path d="M17 5.68V18.32C17 19.52 17.4518 20 18.5741 20H21.4259C22.5482 20 23 19.52 23 18.32V5.68C23 4.48 22.5482 4 21.4259 4H18.5741C17.4518 4 17 4.48 17 5.68Z" fill="#292D32"/>
<path d="M1 5.68V18.32C1 19.52 1.45176 20 2.57412 20H5.42588C6.54824 20 7 19.52 7 18.32V5.68C7 4.48 6.54824 4 5.42588 4H2.57412C1.45176 4 1 4.48 1 5.68Z" fill="#292D32"/>
<path d="M9 5.68V18.32C9 19.52 9.45176 20 10.5741 20H13.4259C14.5482 20 15 19.52 15 18.32V5.68C15 4.48 14.5482 4 13.4259 4H10.5741C9.45176 4 9 4.48 9 5.68Z" fill="#292D32"/>
</svg>
