<svg width="24" height="24" viewBox="0 0 24 24" fill="none" xmlns="http://www.w3.org/2000/svg">
<path fill-rule="evenodd" clip-rule="evenodd" d="M1.25 12C1.25 6.06294 6.06294 1.25 12 1.25C17.9371 1.25 22.75 6.06294 22.75 12C22.75 17.9371 17.9371 22.75 12 22.75C6.06294 22.75 1.25 17.9371 1.25 12ZM12 2.75C6.89136 2.75 2.75 6.89136 2.75 12C2.75 17.1086 6.89136 21.25 12 21.25C17.1086 21.25 21.25 17.1086 21.25 12C21.25 6.89136 17.1086 2.75 12 2.75Z" fill="#1C1B1E"/>
<path d="M12 22C17.5229 22 22 17.5229 22 12C22 6.47715 17.5229 2 12 2C6.47715 2 2 6.47715 2 12C2 17.5229 6.47715 22 12 22Z" fill="#1C1B1E"/>
<path fill-rule="evenodd" clip-rule="evenodd" d="M1.25 12C1.25 6.06294 6.06294 1.25 12 1.25C17.9371 1.25 22.75 6.06294 22.75 12C22.75 17.9371 17.9371 22.75 12 22.75C6.06294 22.75 1.25 17.9371 1.25 12ZM12 2.75C6.89136 2.75 2.75 6.89136 2.75 12C2.75 17.1086 6.89136 21.25 12 21.25C17.1086 21.25 21.25 17.1086 21.25 12C21.25 6.89136 17.1086 2.75 12 2.75Z" fill="#1C1B1E"/>
<path fill-rule="evenodd" clip-rule="evenodd" d="M11.4697 8.46967C11.7626 8.17678 12.2374 8.17678 12.5303 8.46967L17.0303 12.9697C17.3232 13.2626 17.3232 13.7374 17.0303 14.0303C16.7374 14.3232 16.2626 14.3232 15.9697 14.0303L12 10.0607L8.03033 14.0303C7.73744 14.3232 7.26256 14.3232 6.96967 14.0303C6.67678 13.7374 6.67678 13.2626 6.96967 12.9697L11.4697 8.46967Z" fill="#FFFBFF"/>
</svg>
